%FSDAX23Y23*%
%MOMM*%
%SFA1B1*%

%IPPOS*%
%ADD10R,1.349997X1.849996*%
%ADD11R,1.399997X1.749997*%
%ADD12R,1.599997X1.499997*%
%ADD13R,1.199998X1.199998*%
%ADD14R,0.857998X1.611997*%
%ADD15R,1.599997X1.049998*%
%ADD16R,1.499997X1.599997*%
%ADD17R,1.999996X1.999996*%
%ADD18R,1.049998X1.599997*%
%ADD19R,1.749997X1.399997*%
%ADD20R,1.199998X1.199998*%
%ADD21R,1.599997X1.499997*%
%ADD22R,1.499997X1.599997*%
%ADD23R,1.849996X1.349997*%
%LNbevattningssystem-1*%
%LPD*%
G54D10*
X73722Y22225D03*
X76771D03*
X16889Y36195D03*
X19939D03*
X40259Y31115D03*
X37209D03*
X16889Y41275D03*
X19939D03*
X40259Y36195D03*
X37209D03*
X64389Y12065D03*
X61339D03*
G54D11*
X37146Y16510D03*
X40147D03*
X11834Y08255D03*
X14834D03*
Y10795D03*
X11834D03*
G54D12*
X11159Y19759D03*
G54D13*
X10160Y16510D03*
X12159D03*
X66779Y37734D03*
Y39734D03*
X61489D03*
Y37734D03*
G54D14*
X37407Y28460D03*
X40061D03*
G54D15*
X40005Y13221D03*
Y10272D03*
G54D16*
X70029Y38735D03*
X58239D03*
G54D17*
X05134Y23074D03*
X11284D03*
Y34074D03*
X05134D03*
G54D18*
X14809Y05715D03*
X11859D03*
G54D19*
X37146Y05715D03*
Y02714D03*
X19685Y08024D03*
Y11024D03*
X37146Y10334D03*
Y13335D03*
G54D20*
X03079Y16510D03*
X05080D03*
X46759Y03444D03*
Y05444D03*
G54D21*
X04079Y13259D03*
G54D22*
X43509Y04445D03*
G54D23*
X52705Y17399D03*
Y14349D03*
M02*